HIERARCHY
ROOT Hips
{
    OFFSET   0.000000   0.000000   0.000000
    CHANNELS 6 Xposition Yposition Zposition Zrotation Xrotation Yrotation
    JOINT Chest
    {
        OFFSET   0.000000   8.007230   0.000000
        CHANNELS 3 Zrotation Xrotation Yrotation
        JOINT Chest2
        {
            OFFSET   0.000000  22.077100   0.000000
            CHANNELS 3 Zrotation Xrotation Yrotation
            JOINT Neck
            {
                OFFSET   0.000000  23.254800   0.000000
                CHANNELS 3 Zrotation Xrotation Yrotation
                JOINT Head
                {
                    OFFSET   0.000010  14.370000   1.956600
                    CHANNELS 3 Zrotation Xrotation Yrotation
                    End Site
                    {
                        OFFSET   0.000000  19.566000   0.000000
                    }
                }
            }
            JOINT LeftCollar
            {
                OFFSET   3.911900  19.017000  -0.467062
                CHANNELS 3 Zrotation Xrotation Yrotation
                JOINT LeftShoulder
                {
                    OFFSET  10.383700   0.000000   0.000000
                    CHANNELS 3 Zrotation Xrotation Yrotation
                    JOINT LeftElbow
                    {
                        OFFSET  26.662100   0.001193   0.000835
                        CHANNELS 3 Zrotation Xrotation Yrotation
                        JOINT LeftWrist
                        {
                            OFFSET  28.869000  -0.000058  -0.000075
                            CHANNELS 3 Zrotation Xrotation Yrotation
                            JOINT LeftFinger0
                            {
                                OFFSET   2.044660  -2.323460   3.252850
                                CHANNELS 3 Zrotation Xrotation Yrotation
                                JOINT LeftFinger01
                                {
                                    OFFSET   3.088130   0.000000   0.000000
                                    CHANNELS 3 Zrotation Xrotation Yrotation
                                    JOINT LeftFinger02
                                    {
                                        OFFSET   2.639450   0.000000   0.000000
                                        CHANNELS 3 Zrotation Xrotation Yrotation
                                        End Site
                                        {
                                            OFFSET   2.582190   0.000000   0.000000
                                        }
                                    }
                                }
                            }
                            JOINT LeftFinger1
                            {
                                OFFSET   8.364480   0.000000   3.252850
                                CHANNELS 3 Zrotation Xrotation Yrotation
                                JOINT LeftFinger11
                                {
                                    OFFSET   4.646920   0.000000   0.000000
                                    CHANNELS 3 Zrotation Xrotation Yrotation
                                    JOINT LeftFinger12
                                    {
                                        OFFSET   2.323460   0.000000   0.000000
                                        CHANNELS 3 Zrotation Xrotation Yrotation
                                        End Site
                                        {
                                            OFFSET   2.273050   0.000000   0.000000
                                        }
                                    }
                                }
                            }
                            JOINT LeftFinger2
                            {
                                OFFSET   8.364490   0.000016   1.078090
                                CHANNELS 3 Zrotation Xrotation Yrotation
                                JOINT LeftFinger21
                                {
                                    OFFSET   5.111620   0.000000   0.000000
                                    CHANNELS 3 Zrotation Xrotation Yrotation
                                    JOINT LeftFinger22
                                    {
                                        OFFSET   2.788150   0.000012   0.000000
                                        CHANNELS 3 Zrotation Xrotation Yrotation
                                        End Site
                                        {
                                            OFFSET   2.727660   0.000000   0.000000
                                        }
                                    }
                                }
                            }
                            JOINT LeftFinger3
                            {
                                OFFSET   7.899780   0.000014  -1.078090
                                CHANNELS 3 Zrotation Xrotation Yrotation
                                JOINT LeftFinger31
                                {
                                    OFFSET   4.646930   0.000000   0.000000
                                    CHANNELS 3 Zrotation Xrotation Yrotation
                                    JOINT LeftFinger32
                                    {
                                        OFFSET   2.323470   0.000000   0.000000
                                        CHANNELS 3 Zrotation Xrotation Yrotation
                                        End Site
                                        {
                                            OFFSET   2.273050   0.000000   0.000000
                                        }
                                    }
                                }
                            }
                            JOINT LeftFinger4
                            {
                                OFFSET   7.435090   0.000000  -3.252850
                                CHANNELS 3 Zrotation Xrotation Yrotation
                                JOINT LeftFinger41
                                {
                                    OFFSET   3.717550   0.000000   0.000000
                                    CHANNELS 3 Zrotation Xrotation Yrotation
                                    JOINT LeftFinger42
                                    {
                                        OFFSET   1.858770   0.000000   0.000000
                                        CHANNELS 3 Zrotation Xrotation Yrotation
                                        End Site
                                        {
                                            OFFSET   1.818440   0.000000   0.000000
                                        }
                                    }
                                }
                            }
                        }
                    }
                }
            }
            JOINT RightCollar
            {
                OFFSET  -3.911900  19.017000  -0.467063
                CHANNELS 3 Zrotation Xrotation Yrotation
                JOINT RightShoulder
                {
                    OFFSET -10.383700   0.000023   0.000000
                    CHANNELS 3 Zrotation Xrotation Yrotation
                    JOINT RightElbow
                    {
                        OFFSET -26.662100   0.001246   0.001011
                        CHANNELS 3 Zrotation Xrotation Yrotation
                        JOINT RightWrist
                        {
                            OFFSET -28.869000  -0.000026  -0.000078
                            CHANNELS 3 Zrotation Xrotation Yrotation
                            JOINT RightFinger0
                            {
                                OFFSET  -2.044660  -2.323490   3.252850
                                CHANNELS 3 Zrotation Xrotation Yrotation
                                JOINT RightFinger01
                                {
                                    OFFSET  -3.088130   0.000000   0.000000
                                    CHANNELS 3 Zrotation Xrotation Yrotation
                                    JOINT RightFinger02
                                    {
                                        OFFSET  -2.639460   0.000000   0.000000
                                        CHANNELS 3 Zrotation Xrotation Yrotation
                                        End Site
                                        {
                                            OFFSET  -2.582190   0.000000   0.000000
                                        }
                                    }
                                }
                            }
                            JOINT RightFinger1
                            {
                                OFFSET  -8.364480   0.000000   3.252850
                                CHANNELS 3 Zrotation Xrotation Yrotation
                                JOINT RightFinger11
                                {
                                    OFFSET  -4.646920   0.000000   0.000000
                                    CHANNELS 3 Zrotation Xrotation Yrotation
                                    JOINT RightFinger12
                                    {
                                        OFFSET  -2.323470   0.000000   0.000000
                                        CHANNELS 3 Zrotation Xrotation Yrotation
                                        End Site
                                        {
                                            OFFSET  -2.273050   0.000000   0.000000
                                        }
                                    }
                                }
                            }
                            JOINT RightFinger2
                            {
                                OFFSET  -8.364480   0.000000   1.078090
                                CHANNELS 3 Zrotation Xrotation Yrotation
                                JOINT RightFinger21
                                {
                                    OFFSET  -5.111620   0.000000   0.000000
                                    CHANNELS 3 Zrotation Xrotation Yrotation
                                    JOINT RightFinger22
                                    {
                                        OFFSET  -2.788160   0.000000   0.000000
                                        CHANNELS 3 Zrotation Xrotation Yrotation
                                        End Site
                                        {
                                            OFFSET  -2.727660   0.000000   0.000000
                                        }
                                    }
                                }
                            }
                            JOINT RightFinger3
                            {
                                OFFSET  -7.899780   0.000000  -1.078090
                                CHANNELS 3 Zrotation Xrotation Yrotation
                                JOINT RightFinger31
                                {
                                    OFFSET  -4.646930   0.000000   0.000000
                                    CHANNELS 3 Zrotation Xrotation Yrotation
                                    JOINT RightFinger32
                                    {
                                        OFFSET  -2.323470   0.000000   0.000000
                                        CHANNELS 3 Zrotation Xrotation Yrotation
                                        End Site
                                        {
                                            OFFSET  -2.273050   0.000000   0.000000
                                        }
                                    }
                                }
                            }
                            JOINT RightFinger4
                            {
                                OFFSET  -7.435090   0.000000  -3.252850
                                CHANNELS 3 Zrotation Xrotation Yrotation
                                JOINT RightFinger41
                                {
                                    OFFSET  -3.717550   0.000000   0.000000
                                    CHANNELS 3 Zrotation Xrotation Yrotation
                                    JOINT RightFinger42
                                    {
                                        OFFSET  -1.858760   0.000000   0.000000
                                        CHANNELS 3 Zrotation Xrotation Yrotation
                                        End Site
                                        {
                                            OFFSET  -1.818440   0.000000   0.000000
                                        }
                                    }
                                }
                            }
                        }
                    }
                }
            }
        }
    }
    JOINT LeftHip
    {
        OFFSET   9.783010   0.000000   0.000000
        CHANNELS 3 Zrotation Xrotation Yrotation
        JOINT LeftKnee
        {
            OFFSET   0.000073 -41.789100   0.001749
            CHANNELS 3 Zrotation Xrotation Yrotation
            JOINT LeftAnkle
            {
                OFFSET   0.000111 -41.133200  -0.000179
                CHANNELS 3 Zrotation Xrotation Yrotation
                JOINT LeftToe
                {
                    OFFSET   0.000000  -6.358960  14.674500
                    CHANNELS 3 Zrotation Xrotation Yrotation
                    End Site
                    {
                        OFFSET   0.000000   0.000000   3.913200
                    }
                }
            }
        }
    }
    JOINT RightHip
    {
        OFFSET  -9.783010   0.000000   0.000000
        CHANNELS 3 Zrotation Xrotation Yrotation
        JOINT RightKnee
        {
            OFFSET   0.000424 -41.789200   0.005205
            CHANNELS 3 Zrotation Xrotation Yrotation
            JOINT RightAnkle
            {
                OFFSET   0.000000 -41.133200  -0.000155
                CHANNELS 3 Zrotation Xrotation Yrotation
                JOINT RightToe
                {
                    OFFSET   0.000000  -6.358960  14.674500
                    CHANNELS 3 Zrotation Xrotation Yrotation
                    End Site
                    {
                        OFFSET   0.000000   0.000000   3.913200
                    }
                }
            }
        }
    }
}
MOTION
Frames: 5
Frame Time:   0.016667
 -0.413293  89.601500   1.076250  -2.518070  -8.557270  -1.309450   0.082826   5.345870   0.018687   0.164978  10.691800   0.029774   0.374323  -1.108880   0.015120   0.615260  -2.248160   4.969070  -2.845670  -1.993390   0.948602 -72.436100  13.854300  -2.887250  -1.449140  -1.899680 -14.062200  15.142800  -3.062360   0.477174  40.583500  33.568400 -51.090500 -31.625600   0.001667   0.001046 -10.812800   0.000838   0.006162 -32.405000   8.416780 -12.985500 -27.298400   0.000727   0.013218 -19.108800   0.000632  -0.008667 -28.788800   0.990028  -1.800530 -42.734600   0.001351   0.011783 -28.461300   0.001122  -0.014566 -28.717400   0.987991  -1.801610 -39.884000   0.000385  -0.002355 -26.562800   0.000971   0.001593 -34.398800   0.374228  -0.546342 -51.600900   0.002569  -0.001281 -34.366300   0.001604   0.000715  10.892700  -0.815706   4.899430  68.534900   9.481420  -5.953750  -0.791794  -3.604340  14.336600 -13.552300  -5.523400   4.616030 -35.544400  29.456700  63.185800  33.736500  -0.000362  -0.002411  11.877200  -0.000777  -0.009238  43.630000  11.495300  11.804300  36.673100  -0.003942   0.003374  26.638500  -0.000137   0.005626  35.707200   4.705600   6.495530  53.962600  -0.002107  -0.005505  35.939100   0.001469   0.000816  35.215600   3.052030   4.310720  52.996000  -0.002657  -0.006814  35.295300   0.002627   0.001763  48.708800  -4.022620  -3.525530  73.248800  -0.001781   0.002429  48.783700   0.000992   0.001322   1.550520  10.511800  -1.081840   0.805077   0.063783   8.288490  -0.459473  -3.044990  -0.826936   0.000000   0.000000  -0.000000   3.489930   9.932630  -4.282690   0.195786   1.007800 -14.994400  -1.650280  -3.582560   3.827620   0.000000   0.000000   0.000000
 -0.413226  89.601500   1.067220  -2.512820  -8.565470  -1.273230   0.083056   5.361400   0.018478   0.165472  10.722900   0.029297   0.374314  -1.116790   0.015118   0.615424  -2.264330   4.973740  -2.845700  -1.996340   0.953659 -72.433900  13.855500  -2.897700  -1.454620  -1.899720 -14.061900  15.141600  -3.061760   0.477171  40.571200  33.554600 -51.102000 -31.635600   0.001663   0.001051 -10.817800   0.000839   0.006166 -32.420500   8.402100 -12.956700 -27.307700   0.000724   0.013221 -19.115400   0.000630  -0.008667 -28.789000   0.990088  -1.790980 -42.750800   0.001351   0.011787 -28.472100   0.001123  -0.014566 -28.717600   0.988052  -1.792050 -39.891900   0.000382  -0.002355 -26.568000   0.000971   0.001594 -34.399200   0.373800  -0.545677 -51.601500   0.002571  -0.001279 -34.366600   0.001603   0.000714  10.902200  -0.832825   4.919360  68.522500   9.516340  -5.942800  -0.764218  -3.647470  14.305200 -13.548500  -5.476860   4.622590 -35.535000  29.462900  63.219900  33.743700  -0.000358  -0.002403  11.876900  -0.000780  -0.009228  43.570500  11.494300  11.828400  36.626300  -0.003937   0.003362  26.593900  -0.000149   0.005620  35.686600   4.705320   6.502720  53.931900  -0.002110  -0.005507  35.918700   0.001457   0.000795  35.197300   3.054050   4.317820  52.968800  -0.002661  -0.006823  35.277200   0.002617   0.001747  48.683700  -4.013050  -3.520280  73.210400  -0.001783   0.002417  48.758100   0.000985   0.001317   1.556690  10.523900  -1.082060   0.805853   0.033053   8.267090  -0.463634  -3.021710  -0.845216  -0.000000   0.000000  -0.000000   3.489970   9.933060  -4.282690   0.197640   1.017260 -15.007900  -1.650850  -3.582790   3.809780   0.000000   0.000000  -0.000000
 -0.413158  89.601400   1.052620  -2.504310  -8.580870  -1.214400   0.083282   5.388670   0.018268   0.165955  10.777400   0.028821   0.374306  -1.128930   0.015111   0.616418  -2.289110   4.980370  -2.845610  -2.003060   0.960756 -72.429900  13.864700  -2.913650  -1.465170  -1.900010 -14.061600  15.132500  -3.057550   0.477147  40.554300  33.535500 -51.122900 -31.645600   0.001658   0.001058 -10.822800   0.000840   0.006176 -32.439400   8.380570 -12.915300 -27.318800   0.000720   0.013223 -19.123200   0.000629  -0.008668 -28.789200   0.990169  -1.781440 -42.767000   0.001351   0.011792 -28.482800   0.001123  -0.014568 -28.717800   0.988135  -1.782500 -39.899800   0.000379  -0.002355 -26.573300   0.000970   0.001594 -34.399600   0.373372  -0.545011 -51.602000   0.002573  -0.001276 -34.367000   0.001602   0.000714  10.917700  -0.864852   4.947400  68.494900   9.566030  -5.908550  -0.719565  -3.691080  14.245300 -13.547600  -5.387800   4.634470 -35.520700  29.476500  63.281600  33.754300  -0.000351  -0.002372  11.876600  -0.000791  -0.009199  43.463200  11.492500  11.872000  36.541800  -0.003922   0.003333  26.513500  -0.000174   0.005601  35.649000   4.704990   6.515840  53.876000  -0.002117  -0.005520  35.881400   0.001422   0.000746  35.163300   3.058350   4.331040  52.918400  -0.002670  -0.006842  35.243700   0.002588   0.001708  48.637700  -3.995550  -3.510640  73.140200  -0.001790   0.002387  48.711400   0.000968   0.001306   1.562960  10.540900  -1.082300   0.806607   0.002319   8.233750  -0.471532  -2.988180  -0.875093  -0.000000   0.000000   0.000000   3.490200   9.936050  -4.282680   0.200786   1.030630 -15.033800  -1.651930  -3.584000   3.782810   0.000000   0.000000   0.000000
 -0.414449  89.601300   1.041730  -2.497800  -8.597340  -1.169210   0.081855   5.414040   0.018646   0.163030  10.828100   0.029693   0.378864  -1.137720   0.015099   0.623992  -2.307320   4.983550  -2.843700  -2.012640   0.963852 -72.423400  13.890900  -2.925130  -1.482280  -1.922290 -14.063700  15.106200  -3.040020   0.473331  40.549000  33.528100 -51.149000 -31.645500   0.001673   0.001060 -10.822800   0.000848   0.006193 -32.445400   8.367860 -12.893500 -27.320900   0.000718   0.013221 -19.124700   0.000632  -0.008666 -28.789100   0.990199  -1.783650 -42.741200   0.001355   0.011792 -28.465600   0.001123  -0.014568 -28.717900   0.988166  -1.784710 -39.896200   0.000383  -0.002355 -26.570900   0.000967   0.001593 -34.392000   0.376372  -0.549675 -51.590700   0.002576  -0.001278 -34.359400   0.001602   0.000715  10.930000  -0.898298   4.959860  68.459400   9.578790  -5.851070  -0.685808  -3.669050  14.183400 -13.565400  -5.290860   4.646510 -35.514200  29.494200  63.335700  33.759300  -0.000339  -0.002306  11.878500  -0.000812  -0.009151  43.357100  11.492200  11.915100  36.458500  -0.003894   0.003292  26.434300  -0.000199   0.005565  35.609300   4.704910   6.529720  53.817000  -0.002129  -0.005547  35.842200   0.001366   0.000673  35.125500   3.064330   4.345730  52.862600  -0.002682  -0.006871  35.206600   0.002539   0.001649  48.588300  -3.976720  -3.500220  73.064800  -0.001801   0.002340  48.661200   0.000940   0.001290   1.562550  10.548300  -1.082220   0.806700   0.002348   8.212580  -0.479630  -2.970490  -0.897816  -0.000000   0.000000  -0.000000   3.490920   9.947160  -4.282590   0.203654   1.035680 -15.063800  -1.653270  -3.588080   3.764420  -0.000000   0.000000   0.000000
 -0.416794  89.601200   1.031640  -2.491970  -8.614900  -1.128630   0.078840   5.439830   0.020493   0.156768  10.879800   0.033661   0.386871  -1.142680   0.015082   0.636042  -2.316940   4.984780  -2.839840  -2.023460   0.964913 -72.415900  13.919800  -2.931260  -1.503500  -1.955710 -14.068000  15.079000  -3.010000   0.465616  40.551200  33.528000 -51.167400 -31.645100   0.001688   0.001064 -10.822600   0.000862   0.006212 -32.446800   8.362010 -12.884400 -27.321200   0.000718   0.013218 -19.124900   0.000636  -0.008664 -28.789000   0.990207  -1.787990 -42.696300   0.001359   0.011792 -28.435700   0.001122  -0.014568 -28.717800   0.988173  -1.789060 -39.879300   0.000386  -0.002358 -26.559600   0.000965   0.001592 -34.374700   0.381923  -0.558306 -51.564800   0.002580  -0.001280 -34.342200   0.001603   0.000717  10.941200  -0.934983   4.964250  68.414300   9.599440  -5.767420  -0.654258  -3.608800  14.108100 -13.596100  -5.183180   4.658520 -35.505300  29.516200  63.407300  33.764600  -0.000328  -0.002225  11.882300  -0.000838  -0.009091  43.246100  11.492800  11.960200  36.371500  -0.003862   0.003244  26.351700  -0.000232   0.005523  35.571200   4.705150   6.543060  53.760400  -0.002145  -0.005582  35.804500   0.001295   0.000587  35.089500   3.070270   4.359690  52.809700  -0.002697  -0.006906  35.171300   0.002477   0.001576  48.542100  -3.959130  -3.490470  72.994300  -0.001814   0.002282  48.614200   0.000906   0.001271   1.561930  10.550800  -1.081490   0.807344   0.002554   8.192890  -0.489507  -2.963040  -0.919720   0.000000   0.000000   0.000000   3.491370   9.961780  -4.282580   0.208371   1.039030 -15.094600  -1.655030  -3.593290   3.754640   0.000000   0.000000   0.000000
